<svg width="48" height="48" viewBox="0 0 48 48" fill="none" xmlns="http://www.w3.org/2000/svg">
<path d="M3.14739 33.0096C3.15738 34.5635 3.18675 35.8157 3.27322 36.8741C3.40147 38.4438 3.64739 39.4482 4.06032 40.2586C4.86789 41.8435 6.1565 43.1321 7.74146 43.9397C8.55188 44.3526 9.55621 44.5986 11.1259 44.7268C12.1843 44.8133 13.4365 44.8426 14.9904 44.8526V48C13.392 47.9898 12.0353 47.9588 10.8696 47.8635C9.10531 47.7194 7.64071 47.4205 6.31268 46.7439C4.13555 45.6346 2.36546 43.8645 1.25615 41.6874C0.579492 40.3593 0.280646 38.8947 0.136496 37.1304C0.0412597 35.9648 0.010162 34.608 0 33.0096H3.14739Z" fill="black"/>
<path d="M48 33.0096C47.9899 34.608 47.9588 35.9648 47.8635 37.1304C47.7194 38.8947 47.4205 40.3593 46.7439 41.6874C45.6346 43.8645 43.8645 45.6346 41.6874 46.7439C40.3593 47.4205 38.8947 47.7194 37.1304 47.8635C35.9723 47.9582 34.6255 47.9895 33.0404 47.9998V44.8524C34.5801 44.8423 35.8228 44.8127 36.8741 44.7268C38.4438 44.5986 39.4482 44.3526 40.2586 43.9397C41.8435 43.1321 43.1321 41.8435 43.9397 40.2586C44.3526 39.4482 44.5986 38.4438 44.7268 36.8741C44.8133 35.8157 44.8427 34.5635 44.8526 33.0096H48Z" fill="black"/>
<path d="M33.0404 0.000180789C34.6255 0.0105473 35.9723 0.041873 37.1304 0.136496C38.8947 0.280646 40.3593 0.579492 41.6874 1.25615C43.8645 2.36546 45.6346 4.13555 46.7439 6.31268C47.4205 7.64071 47.7194 9.10531 47.8635 10.8696C47.9582 12.0278 47.9895 13.3745 47.9998 14.9596H44.8524C44.8423 13.4199 44.8127 12.1773 44.7268 11.1259C44.5986 9.55621 44.3526 8.55188 43.9397 7.74146C43.1321 6.1565 41.8435 4.86789 40.2586 4.06032C39.4482 3.64739 38.4438 3.40147 36.8741 3.27322C35.8228 3.18732 34.5801 3.15775 33.0404 3.14757V0.000180789Z" fill="black"/>
<path d="M14.9904 3.14739C13.4365 3.15738 12.1843 3.18675 11.1259 3.27322C9.55621 3.40147 8.55188 3.64739 7.74146 4.06032C6.1565 4.86789 4.86789 6.1565 4.06032 7.74146C3.64739 8.55188 3.40147 9.55621 3.27322 11.1259C3.18732 12.1773 3.15778 13.4199 3.1476 14.9596H0.000210921C0.0105774 13.3745 0.041873 12.0278 0.136496 10.8696C0.280646 9.10531 0.579492 7.64071 1.25615 6.31268C2.36546 4.13555 4.13555 2.36546 6.31268 1.25615C7.64071 0.579492 9.10531 0.280646 10.8696 0.136496C12.0353 0.0412597 13.392 0.010162 14.9904 0V3.14739Z" fill="black"/>
<path d="M34.4598 14.5994C34.4598 14.8846 34.3742 15.1298 34.203 15.3351C34.0318 15.529 33.8035 15.6602 33.5181 15.7286L25.6934 17.4395C25.2825 17.5307 25.0143 17.6562 24.8887 17.8159C24.7746 17.9641 24.7175 18.2607 24.7175 18.7055V34.3598C24.7175 35.603 24.512 36.658 24.1011 37.5249C23.6902 38.4031 23.1594 39.1103 22.5088 39.6463C21.8695 40.1824 21.1847 40.5702 20.4541 40.8097C19.735 41.0606 19.0616 41.1861 18.4338 41.1861C17.0069 41.1861 15.837 40.7698 14.9238 39.9372C14.022 39.116 13.5712 38.0495 13.5712 36.7379C13.5712 35.449 13.9821 34.3769 14.8039 33.5215C15.6258 32.6661 16.8928 32.0558 18.605 31.6909L21.3274 31.1263C22.1264 30.9666 22.4802 30.4534 22.3889 29.5865L22.3547 10.5618C22.3547 9.61516 22.9197 9.01637 24.0497 8.76544L32.8503 6.84929C33.2841 6.75804 33.6608 6.84358 33.9804 7.10591C34.3 7.35684 34.4598 7.71041 34.4598 8.16664V14.5994Z" fill="#F5761A"/>
</svg>
